<mxfile host="app.diagrams.net" agent="Mozilla/5.0 (Windows NT 10.0; Win64; x64) AppleWebKit/537.36 (KHTML, like Gecko) Chrome/138.0.0.0 Safari/537.36" version="28.0.7">
  <diagram name="Page-1" id="rzcQqV8I2mSLGyH3ZTMM">
    <mxGraphModel grid="1" page="1" gridSize="10" guides="1" tooltips="1" connect="1" arrows="1" fold="1" pageScale="1" pageWidth="850" pageHeight="1100" math="0" shadow="0">
      <root>
        <mxCell id="0" />
        <mxCell id="1" parent="0" />
        <mxCell id="fyOIvtfLyrvXoad0quU--7" style="edgeStyle=orthogonalEdgeStyle;rounded=0;orthogonalLoop=1;jettySize=auto;html=1;exitX=0.5;exitY=0.5;exitDx=0;exitDy=0;exitPerimeter=0;entryX=0;entryY=0.5;entryDx=0;entryDy=0;" edge="1" parent="1" source="fyOIvtfLyrvXoad0quU--1" target="fyOIvtfLyrvXoad0quU--4">
          <mxGeometry relative="1" as="geometry" />
        </mxCell>
        <mxCell id="fyOIvtfLyrvXoad0quU--8" style="edgeStyle=orthogonalEdgeStyle;rounded=0;orthogonalLoop=1;jettySize=auto;html=1;exitX=0.5;exitY=0.5;exitDx=0;exitDy=0;exitPerimeter=0;entryX=0;entryY=0.5;entryDx=0;entryDy=0;" edge="1" parent="1" source="fyOIvtfLyrvXoad0quU--1" target="fyOIvtfLyrvXoad0quU--5">
          <mxGeometry relative="1" as="geometry" />
        </mxCell>
        <mxCell id="fyOIvtfLyrvXoad0quU--1" value="ADMIN" style="shape=umlActor;verticalLabelPosition=bottom;verticalAlign=top;html=1;outlineConnect=0;" vertex="1" parent="1">
          <mxGeometry x="140" y="130" width="70" height="140" as="geometry" />
        </mxCell>
        <mxCell id="fyOIvtfLyrvXoad0quU--4" value="verifikasi pengguna" style="ellipse;whiteSpace=wrap;html=1;" vertex="1" parent="1">
          <mxGeometry x="330" y="80" width="120" height="80" as="geometry" />
        </mxCell>
        <mxCell id="fyOIvtfLyrvXoad0quU--5" value="kelola barang" style="ellipse;whiteSpace=wrap;html=1;" vertex="1" parent="1">
          <mxGeometry x="330" y="170" width="120" height="80" as="geometry" />
        </mxCell>
        <mxCell id="fyOIvtfLyrvXoad0quU--6" value="lihat laporan" style="ellipse;whiteSpace=wrap;html=1;" vertex="1" parent="1">
          <mxGeometry x="330" y="260" width="120" height="80" as="geometry" />
        </mxCell>
        <mxCell id="fyOIvtfLyrvXoad0quU--9" style="edgeStyle=orthogonalEdgeStyle;rounded=0;orthogonalLoop=1;jettySize=auto;html=1;exitX=0.5;exitY=0.5;exitDx=0;exitDy=0;exitPerimeter=0;entryX=0;entryY=0.375;entryDx=0;entryDy=0;entryPerimeter=0;" edge="1" parent="1" source="fyOIvtfLyrvXoad0quU--1" target="fyOIvtfLyrvXoad0quU--6">
          <mxGeometry relative="1" as="geometry" />
        </mxCell>
        <mxCell id="fyOIvtfLyrvXoad0quU--15" style="edgeStyle=orthogonalEdgeStyle;rounded=0;orthogonalLoop=1;jettySize=auto;html=1;exitX=0.5;exitY=0.5;exitDx=0;exitDy=0;exitPerimeter=0;entryX=1;entryY=0.5;entryDx=0;entryDy=0;" edge="1" parent="1" source="fyOIvtfLyrvXoad0quU--10" target="fyOIvtfLyrvXoad0quU--5">
          <mxGeometry relative="1" as="geometry" />
        </mxCell>
        <mxCell id="fyOIvtfLyrvXoad0quU--16" style="edgeStyle=orthogonalEdgeStyle;rounded=0;orthogonalLoop=1;jettySize=auto;html=1;exitX=0.5;exitY=0.5;exitDx=0;exitDy=0;exitPerimeter=0;entryX=1;entryY=0.5;entryDx=0;entryDy=0;" edge="1" parent="1" source="fyOIvtfLyrvXoad0quU--10" target="fyOIvtfLyrvXoad0quU--13">
          <mxGeometry relative="1" as="geometry" />
        </mxCell>
        <mxCell id="fyOIvtfLyrvXoad0quU--17" style="edgeStyle=orthogonalEdgeStyle;rounded=0;orthogonalLoop=1;jettySize=auto;html=1;exitX=0.5;exitY=0.5;exitDx=0;exitDy=0;exitPerimeter=0;entryX=1;entryY=0.5;entryDx=0;entryDy=0;" edge="1" parent="1" source="fyOIvtfLyrvXoad0quU--10" target="fyOIvtfLyrvXoad0quU--14">
          <mxGeometry relative="1" as="geometry" />
        </mxCell>
        <mxCell id="fyOIvtfLyrvXoad0quU--10" value="PENJUAL" style="shape=umlActor;verticalLabelPosition=bottom;verticalAlign=top;html=1;outlineConnect=0;" vertex="1" parent="1">
          <mxGeometry x="580" y="260" width="70" height="140" as="geometry" />
        </mxCell>
        <mxCell id="fyOIvtfLyrvXoad0quU--13" value="daftar" style="ellipse;whiteSpace=wrap;html=1;" vertex="1" parent="1">
          <mxGeometry x="330" y="350" width="120" height="80" as="geometry" />
        </mxCell>
        <mxCell id="fyOIvtfLyrvXoad0quU--14" value="login" style="ellipse;whiteSpace=wrap;html=1;" vertex="1" parent="1">
          <mxGeometry x="330" y="440" width="120" height="80" as="geometry" />
        </mxCell>
        <mxCell id="fyOIvtfLyrvXoad0quU--24" style="edgeStyle=orthogonalEdgeStyle;rounded=0;orthogonalLoop=1;jettySize=auto;html=1;exitX=0.5;exitY=0.5;exitDx=0;exitDy=0;exitPerimeter=0;entryX=0;entryY=0.5;entryDx=0;entryDy=0;" edge="1" parent="1" source="fyOIvtfLyrvXoad0quU--18" target="fyOIvtfLyrvXoad0quU--13">
          <mxGeometry relative="1" as="geometry" />
        </mxCell>
        <mxCell id="fyOIvtfLyrvXoad0quU--25" style="edgeStyle=orthogonalEdgeStyle;rounded=0;orthogonalLoop=1;jettySize=auto;html=1;exitX=0.5;exitY=0.5;exitDx=0;exitDy=0;exitPerimeter=0;entryX=0;entryY=0.5;entryDx=0;entryDy=0;" edge="1" parent="1" source="fyOIvtfLyrvXoad0quU--18" target="fyOIvtfLyrvXoad0quU--14">
          <mxGeometry relative="1" as="geometry" />
        </mxCell>
        <mxCell id="fyOIvtfLyrvXoad0quU--26" style="edgeStyle=orthogonalEdgeStyle;rounded=0;orthogonalLoop=1;jettySize=auto;html=1;exitX=0.5;exitY=0.5;exitDx=0;exitDy=0;exitPerimeter=0;entryX=0;entryY=0.5;entryDx=0;entryDy=0;" edge="1" parent="1" source="fyOIvtfLyrvXoad0quU--18" target="fyOIvtfLyrvXoad0quU--21">
          <mxGeometry relative="1" as="geometry" />
        </mxCell>
        <mxCell id="fyOIvtfLyrvXoad0quU--27" style="edgeStyle=orthogonalEdgeStyle;rounded=0;orthogonalLoop=1;jettySize=auto;html=1;exitX=0.5;exitY=0.5;exitDx=0;exitDy=0;exitPerimeter=0;entryX=0;entryY=0.5;entryDx=0;entryDy=0;" edge="1" parent="1" source="fyOIvtfLyrvXoad0quU--18" target="fyOIvtfLyrvXoad0quU--22">
          <mxGeometry relative="1" as="geometry" />
        </mxCell>
        <mxCell id="fyOIvtfLyrvXoad0quU--28" style="edgeStyle=orthogonalEdgeStyle;rounded=0;orthogonalLoop=1;jettySize=auto;html=1;exitX=0.5;exitY=0.5;exitDx=0;exitDy=0;exitPerimeter=0;entryX=0;entryY=0.5;entryDx=0;entryDy=0;" edge="1" parent="1" source="fyOIvtfLyrvXoad0quU--18" target="fyOIvtfLyrvXoad0quU--23">
          <mxGeometry relative="1" as="geometry" />
        </mxCell>
        <mxCell id="fyOIvtfLyrvXoad0quU--18" value="PEMBELI/PENAWAR" style="shape=umlActor;verticalLabelPosition=bottom;verticalAlign=top;html=1;outlineConnect=0;" vertex="1" parent="1">
          <mxGeometry x="130" y="500" width="70" height="140" as="geometry" />
        </mxCell>
        <mxCell id="fyOIvtfLyrvXoad0quU--21" value="ajukan penawaran" style="ellipse;whiteSpace=wrap;html=1;" vertex="1" parent="1">
          <mxGeometry x="330" y="530" width="120" height="80" as="geometry" />
        </mxCell>
        <mxCell id="fyOIvtfLyrvXoad0quU--22" value="menang lelang" style="ellipse;whiteSpace=wrap;html=1;" vertex="1" parent="1">
          <mxGeometry x="330" y="620" width="120" height="80" as="geometry" />
        </mxCell>
        <mxCell id="fyOIvtfLyrvXoad0quU--23" value="lakukan pembayaran" style="ellipse;whiteSpace=wrap;html=1;" vertex="1" parent="1">
          <mxGeometry x="330" y="720" width="120" height="80" as="geometry" />
        </mxCell>
      </root>
    </mxGraphModel>
  </diagram>
</mxfile>
